Screens: http://bayimg.com/HAapFaaef

General
Format: MPEG-4
Format profile: Base Media
Codec ID: isom
File size: 991 MiB
Duration: 33mn 57s
Overall bit rate: 4.080 kbps
Writing application: Lavf54.1.100

Video
ID: 1
Format: AVC
Format/Info: Advanced Video Codec
Format profile: High@L3.1
Format settings, CABAC: Yes
Format settings, ReFrames: 5 frames
Codec ID: avc1
Codec ID/Info: Advanced Video Coding
Duration: 33mn 57s
Bit rate: 3 800 Kbps
Width: 1 280 pixels
Height: 720 pixels
Display aspect ratio: 16:9
Frame rate mode: Constant
Frame rate: 29.970 fps
Color space: YUV
Chroma subsampling: 4:2:0
Bit depth: 8 bits
Scan type: Progressive
Bits/(Pixel*Frame): 0.138
Stream size: 917 MiB (93%)

Audio
ID: 2
Format: AAC
Format/Info: Advanced Audio Codec
Format profile: LC
Codec ID: 40
Duration: 33mn 57s
Bit rate mode: Constant
Bit rate: 128 Kbps
Channel(s): 2 channels
Channel positions: Front: L R
Sampling rate: 48.0 KHz
Compression mode: Lossy
Stream size: 31.1 MiB (3%)
Tagged date: UTC 2012-04-10 23:08:20